<svg xmlns="http://www.w3.org/2000/svg" viewBox="0 0 208.72 208.66"><defs><style>.a{fill:#231f20;}</style></defs><title>bean</title><path class="a" d="M127.69,35.72s-12.49-1.8-39.46,17.76a54.91,54.91,0,0,0-5.1-16S77,21,65.35,25.86c0,0-8.51,3.77-2.58,14.68C73.55,60.37,65.3,72.45,65.3,72.45c-1.22,1.84-2.87,4-5.07,6.74-8.94,11.14-28.16,31.87-24.71,82.22,0,0-34.59-23.72-35.5-72.62S26.83,1.68,70.29.05,127.69,35.72,127.69,35.72Z"/><path class="a" d="M208.64,112.34c-2.71-63-61.93-59.76-61.93-59.76-66.45,3.08-94,61-94.53,94.52S74.81,205.6,111,208.5,211.36,175.36,208.64,112.34ZM176.22,96.23s-2.81,35.3-45.77,42.73c0,0-23.77,5.61-26.11,25.36-2.35,13.12-11,11.76-11,11.76-12.13.55-9.24-10.87-9.24-10.87,4.71-37.84,43.64-43.82,43.64-43.82s26.63-3.81,28.8-24.27c0,0-.18-11.59,10.14-12.49S176.22,96.23,176.22,96.23Z"/></svg>