<svg xmlns="http://www.w3.org/2000/svg" viewBox="0 0 757.66 208.66"><defs><style>.a{fill:#fff;}</style></defs><title>kofebin_logo-01</title><path class="a" d="M127.69,35.72s-12.49-1.8-39.46,17.76a54.91,54.91,0,0,0-5.1-16S77,21,65.35,25.86c0,0-8.51,3.77-2.58,14.68C73.55,60.37,65.3,72.45,65.3,72.45c-1.22,1.84-2.87,4-5.07,6.74-8.94,11.14-28.16,31.87-24.71,82.22,0,0-34.59-23.72-35.5-72.62S26.83,1.68,70.29.05,127.69,35.72,127.69,35.72Z"/><path class="a" d="M208.64,112.34c-2.71-63-61.93-59.76-61.93-59.76-66.45,3.08-94,61-94.53,94.52S74.81,205.6,111,208.5,211.36,175.36,208.64,112.34ZM176.22,96.23s-2.81,35.3-45.77,42.73c0,0-23.77,5.61-26.11,25.36-2.35,13.12-11,11.76-11,11.76-12.13.55-9.24-10.87-9.24-10.87,4.71-37.84,43.64-43.82,43.64-43.82s26.63-3.81,28.8-24.27c0,0-.18-11.59,10.14-12.49S176.22,96.23,176.22,96.23Z"/><path class="a" d="M318.43,143.4a13.88,13.88,0,0,1-3.73.49,11.07,11.07,0,0,1-5-1.14,14.28,14.28,0,0,1-3.4-2.19,32.91,32.91,0,0,1-3.08-3.48q-11.69-14.27-29.67-44.27A320.74,320.74,0,0,0,300.11,68q11.34-12,11.35-16.7c0-3.14-2.82-5.19-8.43-6.17q-2.92,8.76-16.22,22.3a307.92,307.92,0,0,1-27.24,24.72q0-8.91.33-18.48T260.54,58c.22-4.1.33-6.43.33-7q0-6.16-9.08-6.16a37.24,37.24,0,0,0-5.51.49q1.13,14.74,1.13,37.61v32.43q0,5.69-.16,15.89t-.16,12.81q0,4.86,1.62,7t6.16,2.19q5.19,0,7.78-1.3-3.07-10.2-3.08-32.1V104c.76-.54,2.05-1.51,3.89-2.92q1.62,2.43,6.81,10.54t8.43,13q3.26,4.88,7.95,11.27a125,125,0,0,0,8.27,10.3q7.62,8.26,14.59,8.27a12.29,12.29,0,0,0,6.81-1.79,5.79,5.79,0,0,0,2.76-5.19A15.12,15.12,0,0,0,318.43,143.4Z"/><path class="a" d="M398.28,79.52Q387,67.85,368,67.84q-18.81,0-30,11.68T326.86,111q0,19.62,11.19,31.3t30,11.67q19,0,30.24-11.67T409.55,111Q409.55,91.2,398.28,79.52Zm-9.16,56.83q-7.46,8.84-21.08,8.84-9.89,0-16.54-5.84a30.73,30.73,0,0,1-9.24-14.11,59.82,59.82,0,0,1-2.59-18q0-13.29,7.7-21.89t20.84-8.59a24.61,24.61,0,0,1,16.45,5.68A29.55,29.55,0,0,1,394,96.06a55.28,55.28,0,0,1,2.59,17.18Q396.58,127.52,389.12,136.35Z"/><path class="a" d="M482.51,80.49a16.76,16.76,0,0,0,1.14-6.16,4.75,4.75,0,0,0-1.3-3.73q-2.43-1.95-22.05-1.95-13.79,0-29.67,1.14,1.94,10.54,1.94,28.86v25.46q0,4.38-.16,12.32t-.16,10q0,3.74,1.54,5.35t5.92,1.62a24.69,24.69,0,0,0,7.13-1q-2.59-7.93-2.59-25V113.73H459q7.46,0,9.57-.89c1.4-.59,2.11-2.24,2.11-5a11.23,11.23,0,0,0-.49-3.73c-3.14.33-8.32.49-15.57.49H444.25V94.43q0-11.82-.49-16.21,9.08-.31,14.43-.32Q474.74,77.9,482.51,80.49Z"/><path class="a" d="M549,141.29q-6.65,2.93-28,2.92c-2.38,0-5.51-.1-9.4-.32q-1-5.35-1-31.46h11.52q5.83,0,9.24-.16a7,7,0,0,0,4.29-1.38c.92-.81,1.38-2.29,1.38-4.46a10.56,10.56,0,0,0-.48-3.56q-4.71.48-15.57.48H510.56q0-21.24-.48-25.13,8.1-.31,14.43-.32,16.53,0,24.32,2.59A17,17,0,0,0,550,74.33a4.75,4.75,0,0,0-1.29-3.73q-2.45-1.95-22.06-1.95-13.77,0-29.67,1.14,1.95,10.54,1.95,29v24.81q0,4.38-.16,12.08c-.11,5.13-.17,8.46-.17,10q0,3.74,1.38,5.35t5.43,1.79l8.92.08q8.6.08,12.49.08,19.61,0,22.05-1.79a4.72,4.72,0,0,0,1.29-3.73A16.79,16.79,0,0,0,549,141.29Z"/><path class="a" d="M611.41,107.08q11.67-4.86,11.68-17.51,0-11.67-9.41-16.7t-24.16-5A138.24,138.24,0,0,0,568,69.3q1.62,10.88,1.62,34.7,0,27.73-2.11,42.16,10.21,7.78,30,7.78,12.15,0,20.43-6.65t8.27-18.48Q626.17,112.93,611.41,107.08ZM589,76.6q21.56,0,21.56,14.11,0,13.62-22.54,13.62-2.91,0-6.81-.33,0-19.29-.48-26.91ZM608.41,141a20.87,20.87,0,0,1-13.54,4.38q-9.24,0-15.4-4.54a253.31,253.31,0,0,0,1.78-28.7,77.54,77.54,0,0,1,11.68-.65,24.38,24.38,0,0,1,14.83,4.46q6.09,4.45,6.08,12.89Q613.84,136.6,608.41,141Z"/><path class="a" d="M662.81,127.19V101.73q0-5.83.32-12.32c.22-4.32.41-8,.57-10.86s.24-4.6.24-5q0-4.86-7.62-4.87a38,38,0,0,0-6.16.49q1,12.33,1,29.19v25.29q0,4.55-.17,12.49t-.16,9.89q0,3.88,1.54,5.51t5.92,1.62a20.09,20.09,0,0,0,7.13-1Q662.81,144.21,662.81,127.19Z"/><path class="a" d="M756.69,101.73q0-5.83.24-12.32c.16-4.32.32-8,.49-10.86s.24-4.6.24-5q0-4.86-7.46-4.87a37.61,37.61,0,0,0-4.7.33q1,12.64,1,30.16,0,23.19.81,34.86-9.24-17-21.4-36.16T707.4,72.22A11,11,0,0,0,699,68.49a22.11,22.11,0,0,0-7,1q2.43,7.77,2.43,28.86v25.29q0,4.55-.08,12.49t-.08,9.89q0,3.88,1.46,5.51t5.84,1.62a21.1,21.1,0,0,0,5.67-.81q-2.6-7.45-2.59-28.86,0-26.1-.32-38.27,8.58,12.5,22,34.86t18.32,29.84c1.51,2.16,4.11,3.24,7.78,3.24,1.19,0,2.86-.11,5-.32q-.81-10.38-.81-29.35Z"/><path class="a" d="M380.74,91.23c-14.37-13.67-26.19-.78-26.19-.78-13.38,14.33-6.52,33.07.69,40.74s17.6,8.56,25.9,1.78S395.11,104.9,380.74,91.23Zm-10.39,3s7.14,8.54-.33,19c0,0-3.8,6.14,0,11.08,2.37,3.44.24,4.92.24,4.92-2.45,2.62-4.34-.56-4.34-.56-7.28-9.5-.36-18.84-.36-18.84s4.8-6.32.78-11.39c0,0-2.57-2.58-.59-4.9S370.35,94.25,370.35,94.25Z"/></svg>